<svg xmlns="http://www.w3.org/2000/svg" viewBox="0 0 64 64" fill="none">
  <defs>
    <linearGradient id="bg" x1="12" y1="8" x2="52" y2="56" gradientUnits="userSpaceOnUse">
      <stop stop-color="#DDEBFF" />
      <stop offset="1" stop-color="#C7D2FE" />
    </linearGradient>
  </defs>
  <circle cx="32" cy="32" r="28" fill="url(#bg)" />
  <rect x="18" y="12" width="24" height="40" rx="4" fill="#FFFFFF" stroke="#0F172A" stroke-width="1.5" />
  <path d="M18 21h24" stroke="#E5E7EB" stroke-width="3" />
  <path d="M24 26h14M24 32h16M24 38h12" stroke="#1D4ED8" stroke-width="2" stroke-linecap="round" />
  <path d="M18 16c0-2.209 1.791-4 4-4h13l7 7v33c0 2.209-1.791 4-4 4H22c-2.209 0-4-1.791-4-4V16Z" stroke="#0F172A" stroke-width="1.5" />
  <path d="M40 12v7h7" fill="#E0E7FF" stroke="#1D4ED8" stroke-width="1.5" />
  <path d="M40 46 46.5 39.5" stroke="#16A34A" stroke-width="6" stroke-linecap="round" />
  <path d="m41 45 4.5-4.5" stroke="#065F46" stroke-width="2" stroke-linecap="round" />
  <circle cx="27" cy="44" r="4" fill="#DCFCE7" stroke="#16A34A" stroke-width="1.5" />
  <path d="m25.5 44 1.5 1.5 3-3" stroke="#065F46" stroke-width="1.5" stroke-linecap="round" stroke-linejoin="round" />
</svg>
